<svg xmlns="http://www.w3.org/2000/svg" width="64" height="64" viewBox="0 0 64 64" fill="none">
  <path d="M36.571 22.857H41.143V27.429H36.571V22.857Z" fill="#2496ED"/>
  <path d="M30.857 22.857H35.429V27.429H30.857V22.857Z" fill="#2496ED"/>
  <path d="M25.143 22.857H29.714V27.429H25.143V22.857Z" fill="#2496ED"/>
  <path d="M19.429 22.857H24V27.429H19.429V22.857Z" fill="#2496ED"/>
  <path d="M25.143 17.143H29.714V21.714H25.143V17.143Z" fill="#2496ED"/>
  <path d="M57.143 28.591C57.085 28.398 56.954 28.235 56.778 28.137C56.602 28.038 56.395 28.011 56.2 28.059C55.2 28.314 54.314 28.914 53.714 29.771C52.457 31.429 52.914 34.171 55.029 35.657C54.686 36.571 53.4 40.571 45.429 40.571H12C11.829 40.572 11.661 40.614 11.509 40.694C11.358 40.773 11.23 40.887 11.135 41.027C11.041 41.167 10.983 41.328 10.968 41.496C10.953 41.664 10.981 41.833 11.049 41.987C12.0763 44.0437 13.5739 45.7951 15.4142 47.099C17.2545 48.4029 19.3809 49.2218 21.6 49.486C26.343 50.114 31.143 49.029 35.029 46.229C38.914 43.429 41.143 39.486 42 37.143H45.429C53.486 37.143 55.829 31.714 56.486 29.714C56.657 29.314 57.029 29.143 57.143 28.591ZM12 34.857H16V30.857H12V34.857ZM17.143 34.857H21.143V30.857H17.143V34.857ZM22.286 34.857H26.286V30.857H22.286V34.857ZM27.429 34.857H31.429V30.857H27.429V34.857ZM32.571 34.857H36.571V30.857H32.571V34.857ZM37.714 34.857H41.714V30.857H37.714V34.857ZM19.429 29.714H23.429V25.714H19.429V29.714ZM24.571 29.714H28.571V25.714H24.571V29.714ZM29.714 29.714H33.714V25.714H29.714V29.714ZM34.857 29.714H38.857V25.714H34.857V29.714ZM40 29.714H44V25.714H40V29.714Z" fill="#2496ED"/>
</svg>
