<svg xmlns="http://www.w3.org/2000/svg" viewBox="0 0 24 24" fill="none">
  <path d="M8.5 2H12V8H8.5C7.11929 8 6 6.88071 6 5.5C6 4.11929 7.11929 3 8.5 3V2ZM8.5 3C7.67157 3 7 3.67157 7 4.5C7 5.32843 7.67157 6 8.5 6H11V4H8.5C8.22386 4 8 4.22386 8 4.5C8 4.77614 8.22386 5 8.5 5H10V6H8.5C7.67157 6 7 5.32843 7 4.5C7 3.67157 7.67157 3 8.5 3ZM8.5 9H12V15H8.5C7.11929 15 6 13.8807 6 12.5C6 11.1193 7.11929 10 8.5 10V9ZM8.5 10C7.67157 10 7 10.6716 7 11.5C7 12.3284 7.67157 13 8.5 13H11V11H8.5C8.22386 11 8 11.2239 8 11.5C8 11.7761 8.22386 12 8.5 12H10V13H8.5C7.67157 13 7 12.3284 7 11.5C7 10.6716 7.67157 10 8.5 10ZM15.5 16C14.1193 16 13 17.1193 13 18.5C13 19.8807 14.1193 21 15.5 21C16.8807 21 18 19.8807 18 18.5C18 17.1193 16.8807 16 15.5 16ZM14 18.5C14 17.6716 14.6716 17 15.5 17C16.3284 17 17 17.6716 17 18.5C17 19.3284 16.3284 20 15.5 20C14.6716 20 14 19.3284 14 18.5ZM15.5 9C14.1193 9 13 10.1193 13 11.5C13 12.8807 14.1193 14 15.5 14C16.8807 14 18 12.8807 18 11.5C18 10.1193 16.8807 9 15.5 9ZM14 11.5C14 10.6716 14.6716 10 15.5 10C16.3284 10 17 10.6716 17 11.5C17 12.3284 16.3284 13 15.5 13C14.6716 13 14 12.3284 14 11.5ZM15.5 2C14.1193 2 13 3.11929 13 4.5C13 5.88071 14.1193 7 15.5 7C16.8807 7 18 5.88071 18 4.5C18 3.11929 16.8807 2 15.5 2ZM14 4.5C14 3.67157 14.6716 3 15.5 3C16.3284 3 17 3.67157 17 4.5C17 5.32843 16.3284 6 15.5 6C14.6716 6 14 5.32843 14 4.5ZM8.5 16H12V20.5C12 21.8807 10.8807 23 9.5 23C8.11929 23 7 21.8807 7 20.5C7 19.1193 8.11929 18 9.5 18V16ZM9.5 18C8.67157 18 8 18.6716 8 19.5C8 20.3284 8.67157 21 9.5 21H11V19H9.5C9.22386 19 9 19.2239 9 19.5C9 19.7761 9.22386 20 9.5 20H10V21H9.5C8.67157 21 8 20.3284 8 19.5C8 18.6716 8.67157 18 9.5 18Z" fill="#A259FF"/>
</svg>
