<svg xmlns="http://www.w3.org/2000/svg" width="64" height="64" viewBox="0 0 64 64" fill="none">
  <path fill-rule="evenodd" clip-rule="evenodd" d="M32 8C18.7 8 8 18.7 8 32C8 42.6 14.7 51.5 24.2 54.8C25.4 55 25.9 54.3 25.9 53.7C25.9 53.2 25.9 51.7 25.9 49.9C19.4 51.3 17.9 46.8 17.9 46.8C16.8 44.2 15.2 43.5 15.2 43.5C12.9 42.2 15.4 42.2 15.4 42.2C17.9 42.4 19.2 44.4 19.2 44.4C21.4 47.9 25.1 46.9 26 46.3C26.2 45 26.9 44.1 27.7 43.6C22.5 43.1 17 41.1 17 31.9C17 29.3 17.9 27.1 19.2 25.4C19 24.9 18.2 22.5 19.5 19.4C19.5 19.4 21.6 18.8 25.9 21.7C27.9 21.2 30 20.9 32.1 20.9C34.2 20.9 36.3 21.2 38.3 21.7C42.6 18.7 44.7 19.4 44.7 19.4C46 22.5 45.2 24.9 45 25.4C46.3 27.2 47.2 29.3 47.2 31.9C47.2 41.1 41.7 43.1 36.5 43.6C37.5 44.2 38.3 45.5 38.3 47.5C38.3 50.4 38.3 53 38.3 53.7C38.3 54.3 38.8 55 40 54.8C49.3 51.5 56 42.5 56 32C56 18.7 45.3 8 32 8Z" fill="white"/>
</svg>
