<svg xmlns="http://www.w3.org/2000/svg" width="64" height="64" viewBox="0 0 64 64" fill="none">
  <path d="M53.9698 32.0003C53.9375 31.8733 53.8709 31.7578 53.7786 31.6647C53.6862 31.5715 53.5714 31.504 53.4448 31.4709L46.7174 29.818L39.7638 15.2986C39.7187 15.1732 39.6405 15.0629 39.538 14.9797C39.4354 14.8965 39.3129 14.8435 39.1836 14.8267C38.9143 14.8267 38.6673 14.9562 38.5148 15.1857L31.9862 27.0003H13.4283C13.2795 27.0003 13.1334 27.0366 13.0048 27.1058C12.8762 27.1749 12.7691 27.2748 12.6937 27.3957C12.6205 27.5186 12.5811 27.6571 12.5792 27.7985C12.5773 27.9399 12.613 28.0794 12.6831 28.2045L19.6367 40.2457L12.9093 47.3934C12.8158 47.4942 12.7498 47.6172 12.7177 47.7509C12.6855 47.8846 12.6883 48.0242 12.7257 48.1563C12.7631 48.2883 12.8339 48.4082 12.9313 48.5046C13.0287 48.601 13.1494 48.6708 13.2819 48.7073C13.4097 48.7389 13.5424 48.7389 13.6702 48.7073L28.3893 44.8114L42.9024 48.6622C42.9849 48.6857 43.0708 48.6976 43.1572 48.6976C43.3109 48.6976 43.4619 48.6584 43.5944 48.5841C43.7269 48.5098 43.8366 48.403 43.9124 48.2744C43.9459 48.2148 43.9711 48.1512 43.9873 48.0851L53.9473 32.5389C53.9924 32.3668 53.9924 32.1826 53.9473 32.0106L53.9698 32.0003ZM28.1762 42.7031L23.6636 32.9293L30.8442 29.2225L28.1762 42.7031Z" fill="#25C7B7"/>
</svg>
