<svg xmlns="http://www.w3.org/2000/svg" width="64" height="64" viewBox="0 0 64 64" fill="none">
  <path d="M32 16C23.47 16 18.15 20.7 16 30.11C19.15 25.41 22.85 23.48 27.11 24.33C29.56 24.82 31.35 26.62 33.33 28.62C36.64 31.98 40.48 36 48 36C56.53 36 61.85 31.3 64 21.89C60.85 26.59 57.15 28.52 52.89 27.67C50.44 27.18 48.65 25.38 46.67 23.38C43.36 20.02 39.52 16 32 16ZM16 36C7.47 36 2.15 40.7 0 50.11C3.15 45.41 6.85 43.48 11.11 44.33C13.56 44.82 15.35 46.62 17.33 48.62C20.64 51.98 24.48 56 32 56C40.53 56 45.85 51.3 48 41.89C44.85 46.59 41.15 48.52 36.89 47.67C34.44 47.18 32.65 45.38 30.67 43.38C27.36 40.02 23.52 36 16 36Z" fill="#38BDF8"/>
</svg>
