<svg xmlns="http://www.w3.org/2000/svg" viewBox="0 0 24 24" fill="none">
  <path d="M3 3H21V21H3V3Z" fill="#3178C6"/>
  <path d="M13.0908 17.2727V14.7273H9.99998V13.3636H13.0908V10.9091H8.72726V17.2727H13.0908Z" fill="white"/>
  <path d="M13.8454 13.2954H15.2999C15.3939 12.7159 15.8227 12.3409 16.4772 12.3409C17.1772 12.3409 17.5863 12.7045 17.5863 13.2159C17.5863 13.6477 17.3 13.8295 16.5999 14.0227L15.8 14.2386C14.5454 14.5682 13.9 15.2045 13.9 16.2727C13.9 17.4773 14.8681 18.2841 16.3772 18.2841C17.8545 18.2841 18.8 17.5114 18.9136 16.3295H17.4931C17.4 16.8863 17.0136 17.1932 16.3681 17.1932C15.7454 17.1932 15.3681 16.8523 15.3681 16.3636C15.3681 15.9659 15.6318 15.7614 16.2681 15.5909L17.1 15.375C18.4999 15.0114 19.0681 14.3863 19.0681 13.3295C19.0681 12.0454 18.0772 11.25 16.4999 11.25C14.9681 11.25 13.9772 12.0568 13.8454 13.2954Z" fill="white"/>
</svg>
